<svg xmlns="http://www.w3.org/2000/svg" viewBox="0 0 512 512" width="512" height="512">
  <defs>
    <clipPath id="tile"><rect x="16" y="16" width="480" height="480" rx="108"/></clipPath>
    <pattern id="argyle" width="120" height="160" patternUnits="userSpaceOnUse">
      <rect width="120" height="160" fill="#1A0A05"/>
      <polygon points="60,0 120,80 60,160 0,80" fill="#5E2A18"/>
      <polygon points="0,0 60,80 0,160" fill="#38190E"/>
      <polygon points="120,0 60,80 120,160" fill="#38190E"/>
      <g stroke="#F15A2C" stroke-width="2" opacity="0.30" stroke-dasharray="6 7">
        <path d="M60 -80 L200 80 M60 -80 L-80 80 M60 80 L200 240 M60 80 L-80 240 M60 240 L200 400 M60 240 L-80 400"/>
      </g>
    </pattern>
  </defs>
  <g clip-path="url(#tile)"><rect x="16" y="16" width="480" height="480" fill="url(#argyle)"/></g>
  <rect x="16" y="16" width="480" height="480" rx="108" fill="none" stroke="#2BD3D3" stroke-width="6"/>
  <g transform="translate(124.0 124.0) scale(11.0)" fill="#F15A2C"><path d="M11.406 8.528h1.17v6.926h-1.17zM1.17 15.454H0V8.528h1.17zm4.534.828h1.17v2.645h-1.17zm-2.86-2.969h1.169v4.282h-1.17zm5.703 0h1.17v4.282h-1.17zM22.83 8.528H24v6.926h-1.17zm-4.534-.81h-1.17V5.073h1.17zm2.86 2.95h-1.169V6.406h1.17zm-5.72 0h-1.17V6.406h1.17z"/></g>
</svg>
